<svg xmlns="http://www.w3.org/2000/svg" xmlns:xlink="http://www.w3.org/1999/xlink" width="400" zoomAndPan="magnify" viewBox="0 0 300 74.999997" height="100" preserveAspectRatio="xMidYMid meet" version="1.0"><defs><g/></defs><rect x="-30" width="360" fill="#ffffff" y="-7.5" height="89.999996" fill-opacity="1"/><rect x="-30" width="360" fill="#ffffff" y="-7.5" height="89.999996" fill-opacity="1"/><g fill="#000000" fill-opacity="1"><g transform="translate(3.947542, 61.612551)"><g><path d="M 4.5 0 L 4.5 -27.296875 L 5.953125 -27.296875 C 6.410156 -27.296875 6.675781 -27.066406 6.75 -26.609375 L 7 -22.65625 C 8.050781 -24.175781 9.265625 -25.398438 10.640625 -26.328125 C 12.015625 -27.265625 13.5625 -27.734375 15.28125 -27.734375 C 17.269531 -27.734375 18.863281 -27.15625 20.0625 -26 C 21.257812 -24.851562 22.070312 -23.253906 22.5 -21.203125 C 22.820312 -22.316406 23.28125 -23.285156 23.875 -24.109375 C 24.46875 -24.929688 25.148438 -25.613281 25.921875 -26.15625 C 26.691406 -26.695312 27.523438 -27.09375 28.421875 -27.34375 C 29.328125 -27.601562 30.257812 -27.734375 31.21875 -27.734375 C 32.570312 -27.734375 33.785156 -27.507812 34.859375 -27.0625 C 35.941406 -26.613281 36.859375 -25.945312 37.609375 -25.0625 C 38.359375 -24.1875 38.929688 -23.109375 39.328125 -21.828125 C 39.734375 -20.546875 39.9375 -19.082031 39.9375 -17.4375 L 39.9375 0 L 37.328125 0 L 37.328125 -17.4375 C 37.328125 -20.113281 36.75 -22.148438 35.59375 -23.546875 C 34.445312 -24.941406 32.804688 -25.640625 30.671875 -25.640625 C 29.710938 -25.640625 28.800781 -25.46875 27.9375 -25.125 C 27.070312 -24.78125 26.300781 -24.265625 25.625 -23.578125 C 24.957031 -22.890625 24.425781 -22.03125 24.03125 -21 C 23.644531 -19.976562 23.453125 -18.789062 23.453125 -17.4375 L 23.453125 0 L 20.8125 0 L 20.8125 -17.4375 C 20.8125 -20.09375 20.285156 -22.125 19.234375 -23.53125 C 18.191406 -24.9375 16.65625 -25.640625 14.625 -25.640625 C 13.132812 -25.640625 11.757812 -25.203125 10.5 -24.328125 C 9.238281 -23.453125 8.113281 -22.238281 7.125 -20.6875 L 7.125 0 Z M 4.5 0 "/></g></g></g><g fill="#000000" fill-opacity="1"><g transform="translate(45.746293, 61.612551)"><g><path d="M 7.40625 -27.296875 L 7.40625 0 L 4.796875 0 L 4.796875 -27.296875 Z M 8.53125 -36.703125 C 8.53125 -36.367188 8.460938 -36.0625 8.328125 -35.78125 C 8.191406 -35.5 8.007812 -35.25 7.78125 -35.03125 C 7.5625 -34.8125 7.304688 -34.632812 7.015625 -34.5 C 6.722656 -34.375 6.414062 -34.3125 6.09375 -34.3125 C 5.757812 -34.3125 5.445312 -34.375 5.15625 -34.5 C 4.863281 -34.632812 4.609375 -34.8125 4.390625 -35.03125 C 4.171875 -35.25 3.992188 -35.5 3.859375 -35.78125 C 3.734375 -36.0625 3.671875 -36.367188 3.671875 -36.703125 C 3.671875 -37.023438 3.734375 -37.335938 3.859375 -37.640625 C 3.992188 -37.941406 4.171875 -38.203125 4.390625 -38.421875 C 4.609375 -38.648438 4.863281 -38.828125 5.15625 -38.953125 C 5.445312 -39.078125 5.757812 -39.140625 6.09375 -39.140625 C 6.414062 -39.140625 6.722656 -39.078125 7.015625 -38.953125 C 7.304688 -38.828125 7.5625 -38.648438 7.78125 -38.421875 C 8.007812 -38.203125 8.191406 -37.941406 8.328125 -37.640625 C 8.460938 -37.335938 8.53125 -37.023438 8.53125 -36.703125 Z M 8.53125 -36.703125 "/></g></g></g><g fill="#000000" fill-opacity="1"><g transform="translate(55.59231, 61.612551)"><g><path d="M 7 -22.515625 C 8.257812 -24.085938 9.71875 -25.347656 11.375 -26.296875 C 13.03125 -27.253906 14.867188 -27.734375 16.890625 -27.734375 C 18.390625 -27.734375 19.710938 -27.492188 20.859375 -27.015625 C 22.003906 -26.546875 22.953125 -25.859375 23.703125 -24.953125 C 24.453125 -24.054688 25.015625 -22.976562 25.390625 -21.71875 C 25.773438 -20.457031 25.96875 -19.03125 25.96875 -17.4375 L 25.96875 0 L 23.34375 0 L 23.34375 -17.4375 C 23.34375 -20 22.753906 -22.003906 21.578125 -23.453125 C 20.410156 -24.910156 18.628906 -25.640625 16.234375 -25.640625 C 14.460938 -25.640625 12.800781 -25.1875 11.25 -24.28125 C 9.707031 -23.382812 8.332031 -22.128906 7.125 -20.515625 L 7.125 0 L 4.5 0 L 4.5 -27.296875 L 5.953125 -27.296875 C 6.410156 -27.296875 6.675781 -27.066406 6.75 -26.609375 Z M 7 -22.515625 "/></g></g></g><g fill="#000000" fill-opacity="1"><g transform="translate(83.403178, 61.612551)"><g><path d="M 23.125 -21.421875 C 22.082031 -22.992188 20.925781 -24.097656 19.65625 -24.734375 C 18.382812 -25.378906 16.9375 -25.703125 15.3125 -25.703125 C 13.695312 -25.703125 12.285156 -25.410156 11.078125 -24.828125 C 9.867188 -24.242188 8.859375 -23.414062 8.046875 -22.34375 C 7.234375 -21.269531 6.617188 -19.988281 6.203125 -18.5 C 5.796875 -17.007812 5.59375 -15.367188 5.59375 -13.578125 C 5.59375 -9.515625 6.335938 -6.523438 7.828125 -4.609375 C 9.316406 -2.703125 11.472656 -1.75 14.296875 -1.75 C 16.085938 -1.75 17.722656 -2.210938 19.203125 -3.140625 C 20.679688 -4.078125 21.988281 -5.390625 23.125 -7.078125 Z M 25.734375 -39.90625 L 25.734375 0 L 24.296875 0 C 23.828125 0 23.554688 -0.238281 23.484375 -0.71875 L 23.203125 -5.015625 C 21.992188 -3.367188 20.582031 -2.0625 18.96875 -1.09375 C 17.363281 -0.125 15.554688 0.359375 13.546875 0.359375 C 10.179688 0.359375 7.566406 -0.800781 5.703125 -3.125 C 3.835938 -5.445312 2.90625 -8.929688 2.90625 -13.578125 C 2.90625 -15.566406 3.164062 -17.425781 3.6875 -19.15625 C 4.207031 -20.882812 4.96875 -22.382812 5.96875 -23.65625 C 6.976562 -24.925781 8.21875 -25.925781 9.6875 -26.65625 C 11.164062 -27.394531 12.863281 -27.765625 14.78125 -27.765625 C 16.632812 -27.765625 18.234375 -27.425781 19.578125 -26.75 C 20.929688 -26.070312 22.113281 -25.066406 23.125 -23.734375 L 23.125 -39.90625 Z M 25.734375 -39.90625 "/></g></g></g><g fill="#000000" fill-opacity="1"><g transform="translate(111.268888, 61.612551)"><g><path d="M 6.109375 0 L 6.109375 -24.4375 L 2.28125 -24.6875 C 1.769531 -24.738281 1.515625 -24.96875 1.515625 -25.375 L 1.515625 -26.4375 L 6.109375 -26.4375 L 6.109375 -29.890625 C 6.109375 -31.453125 6.3125 -32.820312 6.71875 -34 C 7.125 -35.175781 7.691406 -36.15625 8.421875 -36.9375 C 9.148438 -37.726562 10.023438 -38.320312 11.046875 -38.71875 C 12.078125 -39.113281 13.210938 -39.3125 14.453125 -39.3125 C 15.023438 -39.3125 15.597656 -39.257812 16.171875 -39.15625 C 16.742188 -39.050781 17.257812 -38.910156 17.71875 -38.734375 L 17.640625 -37.46875 C 17.597656 -37.300781 17.515625 -37.191406 17.390625 -37.140625 C 17.273438 -37.097656 17.109375 -37.082031 16.890625 -37.09375 C 16.671875 -37.101562 16.390625 -37.128906 16.046875 -37.171875 C 15.703125 -37.222656 15.300781 -37.25 14.84375 -37.25 C 13.945312 -37.25 13.117188 -37.113281 12.359375 -36.84375 C 11.597656 -36.582031 10.941406 -36.160156 10.390625 -35.578125 C 9.847656 -34.992188 9.425781 -34.226562 9.125 -33.28125 C 8.820312 -32.34375 8.671875 -31.1875 8.671875 -29.8125 L 8.671875 -26.4375 L 17.53125 -26.4375 L 17.53125 -24.5 L 8.75 -24.5 L 8.75 0 Z M 6.109375 0 "/></g></g></g><g fill="#000000" fill-opacity="1"><g transform="translate(127.58774, 61.612551)"><g><path d="M 25.671875 -27.296875 L 25.671875 0 L 24.21875 0 C 23.757812 0 23.492188 -0.238281 23.421875 -0.71875 L 23.171875 -4.765625 C 21.910156 -3.191406 20.453125 -1.929688 18.796875 -0.984375 C 17.148438 -0.0351562 15.3125 0.4375 13.28125 0.4375 C 11.757812 0.4375 10.429688 0.203125 9.296875 -0.265625 C 8.160156 -0.742188 7.21875 -1.429688 6.46875 -2.328125 C 5.71875 -3.222656 5.148438 -4.300781 4.765625 -5.5625 C 4.390625 -6.820312 4.203125 -8.25 4.203125 -9.84375 L 4.203125 -27.296875 L 6.828125 -27.296875 L 6.828125 -9.84375 C 6.828125 -7.28125 7.410156 -5.269531 8.578125 -3.8125 C 9.753906 -2.363281 11.539062 -1.640625 13.9375 -1.640625 C 15.707031 -1.640625 17.363281 -2.09375 18.90625 -3 C 20.457031 -3.90625 21.835938 -5.164062 23.046875 -6.78125 L 23.046875 -27.296875 Z M 25.671875 -27.296875 "/></g></g></g><g fill="#000000" fill-opacity="1"><g transform="translate(155.371179, 61.612551)"><g><path d="M 7.375 -39.90625 L 7.375 0 L 4.75 0 L 4.75 -39.90625 Z M 7.375 -39.90625 "/></g></g></g><g fill="#000000" fill-opacity="1"><g transform="translate(161.074738, 60.800041)"><g><path d="M 55.265625 -0.921875 C 55.523438 -0.921875 55.65625 -0.765625 55.65625 -0.453125 C 55.65625 -0.148438 55.523438 0 55.265625 0 C 54.234375 0 52.640625 -0.0507812 50.484375 -0.15625 C 48.222656 -0.257812 46.601562 -0.3125 45.625 -0.3125 C 44.34375 -0.3125 42.773438 -0.257812 40.921875 -0.15625 C 39.179688 -0.0507812 37.796875 0 36.765625 0 C 36.554688 0 36.453125 -0.148438 36.453125 -0.453125 C 36.453125 -0.765625 36.554688 -0.921875 36.765625 -0.921875 C 38.097656 -0.921875 39.0625 -1.0625 39.65625 -1.34375 C 40.25 -1.625 40.546875 -2.128906 40.546875 -2.859375 C 40.546875 -3.722656 40.03125 -5.1875 39 -7.25 L 33.765625 -17.65625 L 14.796875 -17.65625 L 11.796875 -10.9375 C 11.128906 -9.445312 10.796875 -8.0625 10.796875 -6.78125 C 10.796875 -4.9375 11.445312 -3.5 12.75 -2.46875 C 14.0625 -1.4375 15.820312 -0.921875 18.03125 -0.921875 C 18.289062 -0.921875 18.421875 -0.765625 18.421875 -0.453125 C 18.421875 -0.148438 18.289062 0 18.03125 0 C 17.113281 0 15.78125 -0.0507812 14.03125 -0.15625 C 12.070312 -0.257812 10.375 -0.3125 8.9375 -0.3125 C 7.550781 -0.3125 5.882812 -0.257812 3.9375 -0.15625 C 2.1875 -0.0507812 0.769531 0 -0.3125 0 C -0.507812 0 -0.609375 -0.148438 -0.609375 -0.453125 C -0.609375 -0.765625 -0.507812 -0.921875 -0.3125 -0.921875 C 1.125 -0.921875 2.332031 -1.21875 3.3125 -1.8125 C 4.289062 -2.40625 5.265625 -3.457031 6.234375 -4.96875 C 7.210938 -6.488281 8.375 -8.738281 9.71875 -11.71875 L 26.4375 -48.484375 C 26.539062 -48.640625 26.769531 -48.71875 27.125 -48.71875 C 27.539062 -48.71875 27.773438 -48.640625 27.828125 -48.484375 L 47.09375 -10.5625 C 48.894531 -6.914062 50.382812 -4.394531 51.5625 -3 C 52.75 -1.613281 53.984375 -0.921875 55.265625 -0.921875 Z M 15.796875 -19.8125 L 32.609375 -19.8125 L 23.734375 -37.390625 Z M 15.796875 -19.8125 "/></g></g></g><g fill="#000000" fill-opacity="1"><g transform="translate(203.923176, 60.800041)"><g><path d="M 54.578125 -0.921875 C 54.671875 -0.921875 54.71875 -0.765625 54.71875 -0.453125 C 54.71875 -0.148438 54.671875 0 54.578125 0 L 40.84375 0 C 39.71875 0 37.613281 -2.039062 34.53125 -6.125 C 31.445312 -10.207031 27.722656 -15.925781 23.359375 -23.28125 C 22.941406 -23.226562 22.347656 -23.203125 21.578125 -23.203125 C 19.578125 -23.203125 18.164062 -23.226562 17.34375 -23.28125 L 17.34375 -6.25 C 17.34375 -4.65625 17.46875 -3.5 17.71875 -2.78125 C 17.976562 -2.0625 18.476562 -1.570312 19.21875 -1.3125 C 19.96875 -1.050781 21.164062 -0.921875 22.8125 -0.921875 C 22.914062 -0.921875 22.96875 -0.765625 22.96875 -0.453125 C 22.96875 -0.148438 22.914062 0 22.8125 0 C 21.113281 0 19.78125 -0.0234375 18.8125 -0.078125 L 12.953125 -0.15625 L 7.328125 -0.078125 C 6.296875 -0.0234375 4.90625 0 3.15625 0 C 3 0 2.921875 -0.148438 2.921875 -0.453125 C 2.921875 -0.765625 3 -0.921875 3.15625 -0.921875 C 4.800781 -0.921875 5.992188 -1.050781 6.734375 -1.3125 C 7.484375 -1.570312 8 -2.070312 8.28125 -2.8125 C 8.5625 -3.5625 8.703125 -4.707031 8.703125 -6.25 L 8.703125 -41.9375 C 8.703125 -43.476562 8.570312 -44.609375 8.3125 -45.328125 C 8.0625 -46.046875 7.550781 -46.546875 6.78125 -46.828125 C 6.007812 -47.109375 4.828125 -47.25 3.234375 -47.25 C 3.128906 -47.25 3.078125 -47.398438 3.078125 -47.703125 C 3.078125 -48.015625 3.128906 -48.171875 3.234375 -48.171875 L 7.328125 -48.09375 C 9.691406 -47.988281 11.566406 -47.9375 12.953125 -47.9375 C 14.691406 -47.9375 16.515625 -48.015625 18.421875 -48.171875 C 19.085938 -48.222656 19.921875 -48.273438 20.921875 -48.328125 C 21.929688 -48.378906 23.050781 -48.40625 24.28125 -48.40625 C 28.957031 -48.40625 32.578125 -47.539062 35.140625 -45.8125 C 37.710938 -44.09375 39 -41.691406 39 -38.609375 C 39 -35.785156 38.226562 -33.226562 36.6875 -30.9375 C 35.144531 -28.65625 33.085938 -26.820312 30.515625 -25.4375 C 34.628906 -19.269531 38.070312 -14.4375 40.84375 -10.9375 C 43.625 -7.445312 46.09375 -4.90625 48.25 -3.3125 C 50.40625 -1.71875 52.515625 -0.921875 54.578125 -0.921875 Z M 17.34375 -25.4375 C 18.570312 -25.226562 20.0625 -25.125 21.8125 -25.125 C 24.789062 -25.125 26.9375 -25.957031 28.25 -27.625 C 29.5625 -29.300781 30.21875 -31.988281 30.21875 -35.6875 C 30.21875 -39.894531 29.597656 -42.796875 28.359375 -44.390625 C 27.128906 -45.984375 25.359375 -46.78125 23.046875 -46.78125 C 20.992188 -46.78125 19.53125 -46.394531 18.65625 -45.625 C 17.78125 -44.851562 17.34375 -43.570312 17.34375 -41.78125 Z M 17.34375 -25.4375 "/></g></g></g><g fill="#000000" fill-opacity="1"><g transform="translate(245.384408, 60.800041)"><g><path d="M 17.109375 -46.40625 C 10.992188 -46.40625 6.601562 -42.421875 3.9375 -34.453125 C 3.882812 -34.296875 3.726562 -34.226562 3.46875 -34.25 C 3.207031 -34.28125 3.078125 -34.375 3.078125 -34.53125 C 3.285156 -36.582031 3.515625 -39.238281 3.765625 -42.5 C 4.023438 -45.769531 4.15625 -48.226562 4.15625 -49.875 C 4.15625 -50.125 4.296875 -50.25 4.578125 -50.25 C 4.867188 -50.25 5.015625 -50.125 5.015625 -49.875 C 5.015625 -48.738281 6.476562 -48.171875 9.40625 -48.171875 C 13.820312 -48.015625 18.984375 -47.9375 24.890625 -47.9375 C 27.921875 -47.9375 31.132812 -47.988281 34.53125 -48.09375 L 39.765625 -48.171875 C 41.722656 -48.171875 43.148438 -48.296875 44.046875 -48.546875 C 44.953125 -48.804688 45.53125 -49.320312 45.78125 -50.09375 C 45.832031 -50.300781 46 -50.40625 46.28125 -50.40625 C 46.5625 -50.40625 46.703125 -50.300781 46.703125 -50.09375 C 46.554688 -48.550781 46.390625 -46.082031 46.203125 -42.6875 C 46.023438 -39.300781 45.9375 -36.582031 45.9375 -34.53125 C 45.9375 -34.375 45.804688 -34.296875 45.546875 -34.296875 C 45.296875 -34.296875 45.144531 -34.375 45.09375 -34.53125 C 44.320312 -38.488281 42.878906 -41.457031 40.765625 -43.4375 C 38.660156 -45.414062 36.066406 -46.40625 32.984375 -46.40625 C 31.492188 -46.40625 30.503906 -46.082031 30.015625 -45.4375 C 29.535156 -44.789062 29.296875 -43.570312 29.296875 -41.78125 L 29.296875 -6.25 C 29.296875 -4.65625 29.445312 -3.5 29.75 -2.78125 C 30.0625 -2.0625 30.648438 -1.570312 31.515625 -1.3125 C 32.390625 -1.050781 33.78125 -0.921875 35.6875 -0.921875 C 35.84375 -0.921875 35.921875 -0.765625 35.921875 -0.453125 C 35.921875 -0.148438 35.84375 0 35.6875 0 C 33.832031 0 32.367188 -0.0234375 31.296875 -0.078125 L 24.890625 -0.15625 L 18.65625 -0.078125 C 17.570312 -0.0234375 16.082031 0 14.1875 0 C 14.03125 0 13.953125 -0.148438 13.953125 -0.453125 C 13.953125 -0.765625 14.03125 -0.921875 14.1875 -0.921875 C 16.03125 -0.921875 17.398438 -1.050781 18.296875 -1.3125 C 19.203125 -1.570312 19.820312 -2.070312 20.15625 -2.8125 C 20.488281 -3.5625 20.65625 -4.707031 20.65625 -6.25 L 20.65625 -41.9375 C 20.65625 -43.675781 20.421875 -44.851562 19.953125 -45.46875 C 19.492188 -46.09375 18.546875 -46.40625 17.109375 -46.40625 Z M 17.109375 -46.40625 "/></g></g></g></svg>