<svg xmlns="http://www.w3.org/2000/svg" xmlns:xlink="http://www.w3.org/1999/xlink" width="500" zoomAndPan="magnify" viewBox="0 0 375 74.999997" height="100" preserveAspectRatio="xMidYMid meet" version="1.0"><defs><g/></defs><g fill="#545454" fill-opacity="1"><g transform="translate(14.494006, 62.414806)"><g><path d="M 39.59375 0 L 39.921875 -3.734375 L 39.921875 -16.625 C 39.921875 -18.6875 39.6875 -20.257812 39.21875 -21.34375 C 38.75 -22.425781 38.144531 -23.175781 37.40625 -23.59375 C 36.664062 -24.007812 35.878906 -24.21875 35.046875 -24.21875 C 33.566406 -24.21875 32.191406 -23.78125 30.921875 -22.90625 C 29.660156 -22.039062 28.398438 -21.140625 27.140625 -20.203125 C 27.210938 -19.734375 27.273438 -19.203125 27.328125 -18.609375 C 27.378906 -18.015625 27.40625 -17.390625 27.40625 -16.734375 L 27.40625 -5.03125 C 27.40625 -3.59375 27.554688 -2.53125 27.859375 -1.84375 C 28.171875 -1.15625 28.726562 -0.539062 29.53125 0 L 21.5625 0 L 21.890625 -3.734375 L 21.890625 -16.625 C 21.890625 -18.6875 21.65625 -20.257812 21.1875 -21.34375 C 20.71875 -22.425781 20.109375 -23.175781 19.359375 -23.59375 C 18.617188 -24.007812 17.835938 -24.21875 17.015625 -24.21875 C 15.566406 -24.21875 14.242188 -23.8125 13.046875 -23 C 11.859375 -22.1875 10.632812 -21.3125 9.375 -20.375 L 9.375 -5.03125 C 9.375 -3.59375 9.523438 -2.53125 9.828125 -1.84375 C 10.140625 -1.15625 10.691406 -0.539062 11.484375 0 L 3.515625 0 L 3.84375 -3.734375 L 3.84375 -24.546875 C 3.476562 -24.796875 2.976562 -25.007812 2.34375 -25.1875 C 1.71875 -25.363281 1.117188 -25.472656 0.546875 -25.515625 L 0.546875 -25.734375 L 9.640625 -26.546875 L 9.375 -22.53125 L 9.375 -21.609375 C 10.269531 -22.296875 11.269531 -23.023438 12.375 -23.796875 C 13.476562 -24.578125 14.679688 -25.238281 15.984375 -25.78125 C 17.285156 -26.320312 18.65625 -26.59375 20.09375 -26.59375 C 20.957031 -26.59375 21.832031 -26.445312 22.71875 -26.15625 C 23.601562 -25.875 24.414062 -25.34375 25.15625 -24.5625 C 25.894531 -23.789062 26.46875 -22.679688 26.875 -21.234375 C 27.769531 -21.921875 28.796875 -22.675781 29.953125 -23.5 C 31.109375 -24.332031 32.375 -25.054688 33.75 -25.671875 C 35.125 -26.285156 36.585938 -26.59375 38.140625 -26.59375 C 39.222656 -26.59375 40.332031 -26.335938 41.46875 -25.828125 C 42.601562 -25.328125 43.550781 -24.375 44.3125 -22.96875 C 45.070312 -21.5625 45.453125 -19.484375 45.453125 -16.734375 L 45.453125 -5.03125 C 45.453125 -3.59375 45.601562 -2.53125 45.90625 -1.84375 C 46.21875 -1.15625 46.769531 -0.539062 47.5625 0 Z M 39.59375 0 "/></g></g></g><g fill="#545454" fill-opacity="1"><g transform="translate(63.680048, 62.414806)"><g><path d="M 6.34375 -31.75 C 5.363281 -31.75 4.546875 -32.070312 3.890625 -32.71875 C 3.242188 -33.363281 2.921875 -34.160156 2.921875 -35.109375 C 2.921875 -36.046875 3.242188 -36.835938 3.890625 -37.484375 C 4.546875 -38.140625 5.363281 -38.46875 6.34375 -38.46875 C 7.28125 -38.46875 8.0625 -38.140625 8.6875 -37.484375 C 9.320312 -36.835938 9.640625 -36.046875 9.640625 -35.109375 C 9.640625 -34.160156 9.320312 -33.363281 8.6875 -32.71875 C 8.0625 -32.070312 7.28125 -31.75 6.34375 -31.75 Z M 3.515625 0 L 3.84375 -3.734375 L 3.84375 -24.546875 C 3.476562 -24.796875 2.976562 -25.007812 2.34375 -25.1875 C 1.71875 -25.363281 1.117188 -25.472656 0.546875 -25.515625 L 0.546875 -25.734375 L 9.640625 -26.546875 L 9.375 -22.53125 L 9.375 -5.03125 C 9.375 -3.59375 9.523438 -2.53125 9.828125 -1.84375 C 10.140625 -1.15625 10.691406 -0.539062 11.484375 0 Z M 3.515625 0 "/></g></g></g><g fill="#545454" fill-opacity="1"><g transform="translate(76.78911, 62.414806)"><g><path d="M 23.1875 0 L 23.515625 -3.734375 L 23.515625 -16.625 C 23.515625 -18.6875 23.242188 -20.265625 22.703125 -21.359375 C 22.160156 -22.460938 21.472656 -23.210938 20.640625 -23.609375 C 19.804688 -24.015625 18.921875 -24.21875 17.984375 -24.21875 C 16.285156 -24.21875 14.738281 -23.78125 13.34375 -22.90625 C 11.957031 -22.039062 10.632812 -21.195312 9.375 -20.375 L 9.375 -5.03125 C 9.375 -3.59375 9.523438 -2.53125 9.828125 -1.84375 C 10.140625 -1.15625 10.691406 -0.539062 11.484375 0 L 3.515625 0 L 3.84375 -3.734375 L 3.84375 -24.546875 C 3.476562 -24.796875 2.976562 -25.007812 2.34375 -25.1875 C 1.71875 -25.363281 1.117188 -25.472656 0.546875 -25.515625 L 0.546875 -25.734375 L 9.640625 -26.546875 L 9.375 -22.53125 L 9.375 -21.5625 C 10.3125 -22.207031 11.382812 -22.914062 12.59375 -23.6875 C 13.800781 -24.46875 15.132812 -25.144531 16.59375 -25.71875 C 18.0625 -26.300781 19.609375 -26.59375 21.234375 -26.59375 C 22.097656 -26.59375 22.988281 -26.457031 23.90625 -26.1875 C 24.832031 -25.914062 25.679688 -25.425781 26.453125 -24.71875 C 27.234375 -24.019531 27.859375 -23.03125 28.328125 -21.75 C 28.796875 -20.46875 29.03125 -18.796875 29.03125 -16.734375 L 29.03125 -5.03125 C 29.03125 -3.59375 29.179688 -2.53125 29.484375 -1.84375 C 29.796875 -1.15625 30.351562 -0.539062 31.15625 0 Z M 23.1875 0 "/></g></g></g><g fill="#545454" fill-opacity="1"><g transform="translate(109.561757, 62.414806)"><g><path d="M 28.5 -4.4375 C 28.5 -3 28.648438 -1.953125 28.953125 -1.296875 C 29.265625 -0.648438 29.816406 -0.0546875 30.609375 0.484375 L 30.609375 0.65625 L 21.609375 -1.03125 C 21.609375 -1.03125 21.617188 -1.03125 21.640625 -1.03125 C 21.660156 -1.03125 21.671875 -1.046875 21.671875 -1.078125 C 20.804688 -0.609375 19.832031 -0.25 18.75 0 C 17.664062 0.25 16.488281 0.375 15.21875 0.375 C 12.695312 0.375 10.453125 -0.117188 8.484375 -1.109375 C 6.515625 -2.097656 4.96875 -3.523438 3.84375 -5.390625 C 2.726562 -7.253906 2.171875 -9.484375 2.171875 -12.078125 C 2.171875 -14.679688 2.78125 -17.082031 4 -19.28125 C 5.226562 -21.488281 7.085938 -23.257812 9.578125 -24.59375 C 12.078125 -25.925781 15.222656 -26.59375 19.015625 -26.59375 C 20.421875 -26.59375 21.738281 -26.484375 22.96875 -26.265625 L 22.96875 -35.703125 C 22.96875 -36.785156 22.640625 -37.328125 21.984375 -37.328125 C 21.335938 -37.328125 20.164062 -37.070312 18.46875 -36.5625 L 18.46875 -36.890625 L 28.765625 -41.71875 L 28.5 -39.546875 Z M 7.90625 -15.0625 C 7.90625 -12.457031 8.363281 -10.109375 9.28125 -8.015625 C 10.207031 -5.921875 11.472656 -4.257812 13.078125 -3.03125 C 14.691406 -1.800781 16.488281 -1.1875 18.46875 -1.1875 C 19.476562 -1.1875 20.328125 -1.359375 21.015625 -1.703125 C 21.703125 -2.046875 22.316406 -2.523438 22.859375 -3.140625 C 22.898438 -3.390625 22.925781 -3.675781 22.9375 -4 C 22.957031 -4.332031 22.96875 -4.710938 22.96875 -5.140625 L 22.96875 -22.640625 C 22.175781 -23.503906 21.238281 -24.207031 20.15625 -24.75 C 19.070312 -25.289062 17.820312 -25.5625 16.40625 -25.5625 C 13.664062 -25.5625 11.5625 -24.601562 10.09375 -22.6875 C 8.632812 -20.78125 7.90625 -18.238281 7.90625 -15.0625 Z M 7.90625 -15.0625 "/></g></g></g><g fill="#545454" fill-opacity="1"><g transform="translate(142.063552, 62.414806)"><g><path d="M 20.375 -41.65625 C 21.488281 -41.65625 22.800781 -41.5 24.3125 -41.1875 C 25.832031 -40.882812 27.734375 -40.15625 30.015625 -39 L 25.453125 -35.109375 C 24.847656 -35.785156 24.035156 -36.492188 23.015625 -37.234375 C 22.003906 -37.984375 20.910156 -38.628906 19.734375 -39.171875 C 18.566406 -39.710938 17.40625 -39.984375 16.25 -39.984375 C 14.125 -39.984375 12.625 -39.039062 11.75 -37.15625 C 10.882812 -35.28125 10.453125 -32.84375 10.453125 -29.84375 L 10.453125 -26.265625 L 19.015625 -26.265625 L 18.75 -24.96875 L 10.453125 -24.96875 L 10.453125 -5.25 C 10.453125 -3.8125 10.648438 -2.6875 11.046875 -1.875 C 11.441406 -1.0625 12.453125 -0.507812 14.078125 -0.21875 L 14.078125 0 L 4.0625 0 L 4.921875 -3.359375 L 4.921875 -22.59375 C 4.921875 -23.851562 4.550781 -24.5625 3.8125 -24.71875 C 3.070312 -24.882812 2.070312 -24.96875 0.8125 -24.96875 L 1.078125 -26.265625 L 4.921875 -26.265625 L 4.921875 -27.578125 C 4.921875 -29.816406 5.351562 -31.800781 6.21875 -33.53125 C 7.09375 -35.257812 8.269531 -36.726562 9.75 -37.9375 C 11.226562 -39.15625 12.878906 -40.078125 14.703125 -40.703125 C 16.523438 -41.335938 18.414062 -41.65625 20.375 -41.65625 Z M 20.375 -41.65625 "/></g></g></g><g fill="#545454" fill-opacity="1"><g transform="translate(162.21467, 62.414806)"><g><path d="M 28.921875 -1.734375 C 29.328125 -1.484375 29.828125 -1.273438 30.421875 -1.109375 C 31.015625 -0.941406 31.53125 -0.828125 31.96875 -0.765625 L 31.96875 -0.546875 L 23.40625 0.265625 L 23.40625 -4.828125 C 22.5 -4.140625 21.421875 -3.390625 20.171875 -2.578125 C 18.929688 -1.765625 17.570312 -1.066406 16.09375 -0.484375 C 14.613281 0.0859375 13.023438 0.375 11.328125 0.375 C 10.523438 0.375 9.679688 0.238281 8.796875 -0.03125 C 7.910156 -0.300781 7.078125 -0.785156 6.296875 -1.484375 C 5.523438 -2.191406 4.90625 -3.1875 4.4375 -4.46875 C 3.96875 -5.75 3.734375 -7.421875 3.734375 -9.484375 L 3.734375 -21.125 C 3.734375 -22.601562 3.550781 -23.675781 3.1875 -24.34375 C 2.832031 -25.019531 2.039062 -25.628906 0.8125 -26.171875 L 0.8125 -26.265625 L 9.59375 -26.265625 L 9.265625 -22.53125 L 9.265625 -9.59375 C 9.265625 -7.570312 9.535156 -6.007812 10.078125 -4.90625 C 10.617188 -3.800781 11.296875 -3.039062 12.109375 -2.625 C 12.921875 -2.207031 13.742188 -2 14.578125 -2 C 16.410156 -2 18.019531 -2.421875 19.40625 -3.265625 C 20.800781 -4.117188 22.132812 -5.035156 23.40625 -6.015625 L 23.40625 -21.125 C 23.40625 -22.601562 23.222656 -23.675781 22.859375 -24.34375 C 22.492188 -25.019531 21.703125 -25.628906 20.484375 -26.171875 L 20.484375 -26.265625 L 29.25 -26.265625 L 28.921875 -22.53125 Z M 28.921875 -1.734375 "/></g></g></g><g fill="#545454" fill-opacity="1"><g transform="translate(194.987318, 62.414806)"><g><path d="M 9.53125 -5.25 C 9.53125 -3.8125 9.710938 -2.6875 10.078125 -1.875 C 10.441406 -1.0625 11.289062 -0.507812 12.625 -0.21875 L 12.625 0 L 3.515625 0 L 4.015625 -3.359375 L 4.015625 -35.703125 C 4.015625 -36.785156 3.675781 -37.328125 3 -37.328125 C 2.332031 -37.328125 1.148438 -37.070312 -0.546875 -36.5625 L -0.546875 -36.890625 L 9.8125 -41.71875 L 9.53125 -39.546875 Z M 9.53125 -5.25 "/></g></g></g><g fill="#000000" fill-opacity="1"><g transform="translate(212.016968, 61.394067)"><g><path d="M 45.328125 -7.859375 C 46.078125 -5.953125 46.742188 -4.46875 47.328125 -3.40625 C 47.910156 -2.34375 48.523438 -1.582031 49.171875 -1.125 C 49.816406 -0.664062 50.597656 -0.375 51.515625 -0.25 L 51.515625 0 L 30.53125 0 L 30.53125 -0.25 C 31.988281 -0.375 33.195312 -0.65625 34.15625 -1.09375 C 35.113281 -1.53125 35.71875 -2.25 35.96875 -3.25 C 36.21875 -4.25 35.96875 -5.664062 35.21875 -7.5 L 33.96875 -10.609375 L 10.421875 -10.609375 L 9.046875 -7.5 C 8.253906 -5.707031 7.960938 -4.332031 8.171875 -3.375 C 8.378906 -2.414062 8.898438 -1.71875 9.734375 -1.28125 C 10.566406 -0.84375 11.566406 -0.5 12.734375 -0.25 L 12.734375 0 L 1.25 0 L 1.25 -0.25 C 2.125 -0.5 2.90625 -0.851562 3.59375 -1.3125 C 4.28125 -1.769531 4.945312 -2.476562 5.59375 -3.4375 C 6.238281 -4.394531 6.9375 -5.769531 7.6875 -7.5625 L 21.234375 -38.78125 L 21.109375 -40.890625 L 22.421875 -41.578125 L 30.65625 -45.578125 C 30.65625 -45.410156 30.738281 -45.035156 30.90625 -44.453125 C 31.070312 -43.867188 31.488281 -42.765625 32.15625 -41.140625 Z M 10.859375 -11.734375 L 33.53125 -11.734375 L 22.671875 -38.90625 Z M 10.859375 -11.734375 "/></g></g></g><g fill="#000000" fill-opacity="1"><g transform="translate(264.774266, 61.394067)"><g><path d="M 39.03125 -8.234375 C 40.269531 -6.578125 41.378906 -5.257812 42.359375 -4.28125 C 43.335938 -3.300781 44.304688 -2.507812 45.265625 -1.90625 C 46.222656 -1.300781 47.242188 -0.726562 48.328125 -0.1875 L 48.328125 0 L 33.59375 0 L 33.59375 -1.0625 L 22.171875 -17.421875 L 15.484375 -17.421875 L 15.484375 -3.5625 C 15.484375 -2.4375 15.953125 -1.65625 16.890625 -1.21875 C 17.828125 -0.78125 18.941406 -0.476562 20.234375 -0.3125 L 20.234375 0 L 0.9375 0 L 0.9375 -0.3125 C 2.226562 -0.476562 3.34375 -0.78125 4.28125 -1.21875 C 5.21875 -1.65625 5.6875 -2.4375 5.6875 -3.5625 L 5.6875 -40.140625 C 5.6875 -41.265625 5.21875 -42.046875 4.28125 -42.484375 C 3.34375 -42.921875 2.226562 -43.222656 0.9375 -43.390625 L 0.9375 -43.703125 L 25.40625 -43.703125 C 31.320312 -43.703125 35.835938 -42.753906 38.953125 -40.859375 C 42.078125 -38.972656 43.640625 -35.925781 43.640625 -31.71875 C 43.640625 -28.675781 42.566406 -26 40.421875 -23.6875 C 38.285156 -21.382812 35.34375 -19.691406 31.59375 -18.609375 Z M 15.484375 -42.578125 L 15.484375 -19.859375 C 18.273438 -19.023438 21.082031 -18.546875 23.90625 -18.421875 L 28.28125 -18.609375 C 30.113281 -18.941406 31.519531 -19.875 32.5 -21.40625 C 33.476562 -22.945312 33.96875 -25.488281 33.96875 -29.03125 C 33.96875 -30.738281 33.8125 -32.394531 33.5 -34 C 33.1875 -35.601562 32.613281 -37.046875 31.78125 -38.328125 C 30.945312 -39.617188 29.738281 -40.648438 28.15625 -41.421875 C 26.570312 -42.191406 24.535156 -42.578125 22.046875 -42.578125 Z M 15.484375 -42.578125 "/></g></g></g><g fill="#000000" fill-opacity="1"><g transform="translate(312.474357, 61.394067)"><g><path d="M 44.203125 -43.703125 L 40.203125 -30.84375 L 39.953125 -30.84375 C 40.242188 -33.675781 39.890625 -35.960938 38.890625 -37.703125 C 37.898438 -39.453125 36.46875 -40.734375 34.59375 -41.546875 C 32.71875 -42.359375 30.550781 -42.765625 28.09375 -42.765625 L 26.96875 -42.765625 L 26.96875 -4.1875 C 26.96875 -2.769531 27.488281 -1.8125 28.53125 -1.3125 C 29.570312 -0.8125 31.050781 -0.476562 32.96875 -0.3125 L 32.96875 0 L 11.171875 0 L 11.171875 -0.3125 C 13.085938 -0.476562 14.566406 -0.8125 15.609375 -1.3125 C 16.648438 -1.8125 17.171875 -2.769531 17.171875 -4.1875 L 17.171875 -42.765625 C 14.296875 -42.679688 11.859375 -42.210938 9.859375 -41.359375 C 7.867188 -40.503906 6.164062 -39.210938 4.75 -37.484375 C 3.332031 -35.765625 2.039062 -33.550781 0.875 -30.84375 L 0.625 -30.84375 L 2.6875 -43.703125 Z M 44.203125 -43.703125 "/></g></g></g></svg>